<svg version="1.1" id="Layer_1" xmlns="http://www.w3.org/2000/svg" xmlns:xlink="http://www.w3.org/1999/xlink" x="0px" y="0px"
	 width="385.129px" height="152.07px" viewBox="0 0 385.129 152.07" enable-background="new 0 0 385.129 152.07"
	 xml:space="preserve">
<g>
	<path class="path" fill="none" stroke="#FFFFFF" stroke-miterlimit="10" d="M383.902,43.699l-0.655-4.949l-0.02,0.007
		c-0.209-1.816-0.743-3.871-1.3-5.505c-1.633-4.953-4.323-9.522-7.738-13.442c-13.6-15.643-36.771-19.657-56.427-19.796
		c-21.168-0.157-42.311,1.129-63.423,2.51c-20.487,1.332-41.013,2.747-61.55,2.747c-0.074,0-0.151-0.004-0.226-0.004
		c-0.071,0-0.146,0.004-0.223,0.004c-20.538,0-41.061-1.416-61.548-2.747c-21.112-1.381-42.255-2.667-63.426-2.51
		C47.71,0.152,24.541,4.166,10.941,19.809c-3.415,3.92-6.103,8.489-7.736,13.442c-0.556,1.634-1.093,3.689-1.3,5.505l-0.02-0.007
		L1.23,43.699c0,0-1.551,19.865-1.17,31.12c-0.011,0.089-0.022,0.168-0.02,0.201c0.135,1.913,0.248,3.827,0.413,5.743
		c0.54,5.938,1.394,11.852,2.76,17.671c3.572,15.344,10.633,30.14,23.486,39.814c10.341,7.767,23.489,11.722,36.215,13.159
		c14.332,1.613,29.345,0.223,43.252-3.506c20.818-5.602,41.484-17.174,53.809-35.311c10.184-15,12.299-33.977,22.063-49.254
		c0.501-1.076,1.526-2.272,2.374-3.065c2.251-2.071,5.016-3.14,8.069-3.294c0.03,0.001,0.059,0.007,0.083,0.008
		c0.027-0.001,0.055-0.007,0.083-0.008c3.057,0.154,5.821,1.223,8.071,3.294c0.846,0.793,1.87,1.99,2.377,3.065
		c9.761,15.278,11.875,34.254,22.062,49.254c12.321,18.137,32.99,29.709,53.808,35.311c13.908,3.729,28.918,5.119,43.252,3.506
		c12.727-1.438,25.874-5.393,36.213-13.159c12.855-9.675,19.917-24.471,23.489-39.814c1.363-5.819,2.22-11.732,2.757-17.671
		c0.165-1.916,0.278-3.83,0.413-5.743c0.005-0.033-0.009-0.112-0.02-0.201C385.45,63.563,383.902,43.699,383.902,43.699z
		 M168.777,43.58v0.119c-0.174,2.462-1.154,9.577-1.154,9.577l-0.027,0.165c-0.54,3.112-1.189,6.197-1.95,9.27l-0.027,0.104
		c0.116,0.207-2.663,9.572-2.663,9.572l-0.063,0.173c-0.978,3.153-2.032,6.287-3.178,9.391l-0.039,0.09
		c0.107,0.221-3.819,9.587-3.819,9.587l-0.074,0.178c-10.997,25.513-38.289,38.27-38.289,38.27s-10.165,4.335-15.225,5.379
		c-57.815,11.931-77.322-13.247-81.739-24.41l-0.083-0.197c-6.073-13.403-7.309-28.806-7.309-28.806l-0.02-0.122
		c-0.311-3.119-1.402-37.087,3.729-47.898l0.044-0.081c1.396-3.991,7.29-9.57,7.29-9.57l0.297-0.25
		C35.76,15.24,52.951,12.993,66.906,12.894c29.212-0.212,58.316,2.453,87.456,4.073c4.969,0.541,8.827,2.861,11.319,7.193
		l0.121,0.208c0.121,0.213,2.311,5.46,2.81,9.57l0.017,0.11C168.975,37.201,168.975,40.424,168.777,43.58z M372.016,81.918
		l-0.02,0.122c0,0-1.236,15.402-7.31,28.806l-0.085,0.197c-4.417,11.163-23.924,36.341-81.736,24.41
		c-5.062-1.044-15.228-5.379-15.228-5.379s-27.292-12.757-38.289-38.27l-0.071-0.178c0,0-3.928-9.366-3.82-9.587l-0.041-0.09
		c-1.143-3.104-2.197-6.237-3.178-9.391l-0.061-0.173c0,0-2.782-9.366-2.666-9.572l-0.027-0.104c-0.761-3.073-1.407-6.158-1.95-9.27
		l-0.024-0.165c0,0-0.98-7.115-1.154-9.577V43.58c-0.201-3.156-0.201-6.379,0.148-9.531l0.017-0.11
		c0.496-4.11,2.688-9.357,2.807-9.57l0.124-0.208c2.489-4.332,6.351-6.652,11.318-7.193c29.138-1.621,58.245-4.285,87.454-4.073
		c13.958,0.099,31.148,2.347,42.429,11.224l0.298,0.25c0,0,5.896,5.58,7.292,9.57l0.044,0.081
		C373.415,44.831,372.325,78.799,372.016,81.918z"/>
	<g>
		<line class="line line2" fill="none" stroke="#FFFFFF" stroke-miterlimit="10" x1="16.322" y1="34.114" x2="167.911" y2="34.114"/>
		<line class="line line1" fill="none" stroke="#FFFFFF" stroke-miterlimit="10" x1="24.491" y1="24.107" x2="165.649" y2="24.107"/>
		<line class="line line3" fill="none" stroke="#FFFFFF" stroke-miterlimit="10" x1="14.9" y1="44.12" x2="168.777" y2="44.12"/>
		<line class="line line4" fill="none" stroke="#FFFFFF" stroke-miterlimit="10" x1="13.328" y1="53.126" x2="167.595" y2="53.126"/>
		<line class="line line5" fill="none" stroke="#FFFFFF" stroke-miterlimit="10" x1="12.866" y1="63.132" x2="164.909" y2="63.132"/>
		<line class="line line6" fill="none" stroke="#FFFFFF" stroke-miterlimit="10" x1="12.899" y1="72.138" x2="162.908" y2="72.138"/>
		<line class="line line7" fill="none" stroke="#FFFFFF" stroke-miterlimit="10" x1="13.117" y1="82.144" x2="159.659" y2="82.144"/>
		<line class="line line8" fill="none" stroke="#FFFFFF" stroke-miterlimit="10" x1="14.9" y1="91.148" x2="156.055" y2="91.148"/>
		<line class="line line9" fill="none" stroke="#FFFFFF" stroke-miterlimit="10" x1="16.879" y1="101.154" x2="150.728" y2="101.154"/>
		<line class="line line10" fill="none" stroke="#FFFFFF" stroke-miterlimit="10" x1="20.577" y1="111.16" x2="142.811" y2="111.16"/>
		<line class="line line11" fill="none" stroke="#FFFFFF" stroke-miterlimit="10" x1="26.106" y1="120.165" x2="132.947" y2="120.165"/>
		<line class="line line12" fill="none" stroke="#FFFFFF" stroke-miterlimit="10" x1="38.12" y1="130.171" x2="117.57" y2="130.171"/>
	</g>
	<g>
		<line class="line line2" fill="none" stroke="#FFFFFF" stroke-miterlimit="10" x1="368.827" y1="34.114" x2="217.238" y2="34.114"/>
		<line class="line line1" fill="none" stroke="#FFFFFF" stroke-miterlimit="10" x1="360.658" y1="24.107" x2="219.5" y2="24.107"/>
		<line class="line line3" fill="none" stroke="#FFFFFF" stroke-miterlimit="10" x1="370.249" y1="44.12" x2="216.372" y2="44.12"/>
		<line class="line line4" fill="none" stroke="#FFFFFF" stroke-miterlimit="10" x1="371.821" y1="53.126" x2="217.553" y2="53.126"/>
		<line class="line line5" fill="none" stroke="#FFFFFF" stroke-miterlimit="10" x1="372.283" y1="63.132" x2="220.239" y2="63.132"/>
		<line class="line line6" fill="none" stroke="#FFFFFF" stroke-miterlimit="10" x1="372.249" y1="72.138" x2="222.241" y2="72.138"/>
		<line class="line line7" fill="none" stroke="#FFFFFF" stroke-miterlimit="10" x1="372.032" y1="82.144" x2="225.489" y2="82.144"/>
		<line class="line line8" fill="none" stroke="#FFFFFF" stroke-miterlimit="10" x1="370.249" y1="91.148" x2="229.093" y2="91.148"/>
		<line class="line line9" fill="none" stroke="#FFFFFF" stroke-miterlimit="10" x1="368.269" y1="101.154" x2="234.42" y2="101.154"/>
		<line class="line line10" fill="none" stroke="#FFFFFF" stroke-miterlimit="10" x1="364.571" y1="111.16" x2="242.337" y2="111.16"/>
		<line class="line line11" fill="none" stroke="#FFFFFF" stroke-miterlimit="10" x1="359.042" y1="120.165" x2="252.202" y2="120.165"/>
		<line class="line line12" fill="none" stroke="#FFFFFF" stroke-miterlimit="10" x1="347.028" y1="130.171" x2="267.579" y2="130.171"/>
	</g>
</g>
</svg>
