<?xml version="1.0" encoding="utf-8"?>
<!-- Generator: Adobe Illustrator 16.0.0, SVG Export Plug-In . SVG Version: 6.00 Build 0)  -->
<!DOCTYPE svg PUBLIC "-//W3C//DTD SVG 1.1//EN" "http://www.w3.org/Graphics/SVG/1.1/DTD/svg11.dtd">
<svg version="1.1" id="Layer_1" xmlns="http://www.w3.org/2000/svg" xmlns:xlink="http://www.w3.org/1999/xlink" x="0px" y="0px"
	 width="22px" height="22px" viewBox="5 5 22 22" enable-background="new 5 5 22 22" xml:space="preserve">
<g>
	<path fill="#FFFFFF" enable-background="new    " d="M22.42,23.698H9.413c-0.48,0-0.869-0.389-0.869-0.87
		c0-0.479,0.389-0.869,0.869-0.869H22.42c0.482,0,0.871,0.39,0.871,0.869C23.291,23.31,22.902,23.698,22.42,23.698z"/>
	<path fill="#FFFFFF" enable-background="new    " d="M24.023,19.889H7.81c-0.48,0-0.869-0.389-0.869-0.87
		c0-0.479,0.389-0.868,0.869-0.868h16.213c0.481,0,0.869,0.389,0.869,0.868C24.893,19.5,24.505,19.889,24.023,19.889z"/>
	<path fill="#FFFFFF" enable-background="new    " d="M25.371,14.342h-8.044l4.545-6.341c0.277-0.39,0.189-0.933-0.2-1.213
		c-0.394-0.28-0.934-0.19-1.216,0.2l-5.269,7.353H6.462c-0.479,0-0.869,0.389-0.869,0.869c0,0.48,0.39,0.871,0.869,0.871h18.909
		c0.479,0,0.87-0.391,0.87-0.871C26.241,14.73,25.851,14.342,25.371,14.342z"/>
</g>
</svg>
