<?xml version="1.0" encoding="utf-8"?>
<!-- Generator: Adobe Illustrator 16.0.0, SVG Export Plug-In . SVG Version: 6.00 Build 0)  -->
<!DOCTYPE svg PUBLIC "-//W3C//DTD SVG 1.1//EN" "http://www.w3.org/Graphics/SVG/1.1/DTD/svg11.dtd">
<svg version="1.1" id="Layer_1" xmlns="http://www.w3.org/2000/svg" xmlns:xlink="http://www.w3.org/1999/xlink" x="0px" y="0px"
	 width="32px" height="32px" viewBox="0 0 32 32" enable-background="new 0 0 32 32" xml:space="preserve">
<path fill="#FFFFFF" enable-background="new    " d="M25.943,28.323H5.889c-0.74,0-1.34-0.601-1.34-1.341s0.6-1.342,1.34-1.342
	h20.054c0.742,0,1.343,0.602,1.343,1.342S26.686,28.323,25.943,28.323z"/>
<path fill="#FFFFFF" enable-background="new    " d="M28.415,22.45H3.418c-0.741,0-1.34-0.601-1.34-1.341s0.6-1.34,1.34-1.34h24.997
	c0.743,0,1.342,0.6,1.342,1.34S29.158,22.45,28.415,22.45z"/>
<path fill="#FFFFFF" enable-background="new    " d="M30.494,13.897H18.091l7.007-9.775c0.43-0.602,0.293-1.439-0.31-1.871
	c-0.604-0.432-1.438-0.293-1.872,0.309l-8.125,11.336H1.34c-0.74,0-1.34,0.6-1.34,1.34c0,0.74,0.6,1.341,1.34,1.341h29.154
	c0.738,0,1.34-0.601,1.34-1.341C31.834,14.497,31.232,13.897,30.494,13.897z"/>
</svg>
